#!OML:ASF H:\BreakDance\Project 1\Capture day 1\Session 1\Male.ASF
:FULLY-SPECIFIED
:DEGREES
30
root 13.456 15.9438 1.29168 6.99114 -88.4367 -8.31094
lowerback -8.33372 0.380613 0.53297
upperback 3.1493 0.551253 -1.54402
thorax 8.0302 0.335544 -1.84824
lowerneck 1.49296 0.318685 -1.35028
upperneck 15.9804 -0.692581 5.32221
head 4.54986 -0.323425 1.82963
rclavicle -1.70209e-015 3.97569e-016
rhumerus -26.1464 14.0606 -93.0363
rradius 48.9986
rwrist 14.2775
rhand -33.8881 -31.4328
rfingers 7.12502
rthumb -7.07158 -61.2947
lclavicle -1.70209e-015 3.97569e-016
lhumerus -24.4737 -19.2609 87.9185
lradius 47.1164
lwrist -14.6956
lhand -27.5353 -28.5888
lfingers 7.12502
lthumb -0.937099 1.38884
rfemur -13.4846 2.9821 13.7216
rtibia 44.6598
rfoot -26.5218 -19.1043
rtoes -2.64396
lfemur -15.9642 5.91767 -10.3263
ltibia 43.0539
lfoot -29.3896 14.0786
ltoes -34.575
31
root 13.4671 15.942 1.29495 11.3264 -88.2284 -12.5973
lowerback -8.09012 0.343494 0.632291
upperback 3.17693 0.486375 -1.49806
thorax 7.91633 0.307019 -1.86545
lowerneck 1.74389 0.369951 -1.37946
upperneck 14.8887 -0.525884 5.17621
head 4.65752 -0.273068 1.98112
rclavicle 2.60905e-016 -6.75868e-015
rhumerus -26.1628 13.7052 -93.0206
rradius 48.9631
rwrist 14.1308
rhand -34.1067 -31.3704
rfingers 7.12502
rthumb -7.28256 -61.225
lclavicle 2.60905e-016 -6.75868e-015
lhumerus -24.2793 -19.2498 87.8611
lradius 47.0056
lwrist -14.5654
lhand -27.466 -28.6661
lfingers 7.12502
lthumb -0.870181 1.31186
rfemur -13.5404 2.91042 13.8871
rtibia 44.6524
rfoot -26.5491 -19.1826
rtoes -2.60409
lfemur -16.2409 6.06927 -10.1491
ltibia 43.2611
lfoot -29.3342 13.7465
ltoes -34.482
32
root 13.4776 15.9406 1.29963 14.0989 -88.0161 -15.3102
lowerback -7.83049 0.315923 0.739466
upperback 3.17577 0.435768 -1.47931
thorax 7.76313 0.286045 -1.91324
lowerneck 1.8881 0.414049 -1.39564
upperneck 14.3055 -0.41721 5.18575
head 4.4094 -0.217736 1.97956
rclavicle -2.34814e-015 1.47101e-014
rhumerus -26.25 13.2608 -93.0322
rradius 48.9139
rwrist 13.9686
rhand -34.3296 -31.3363
rfingers 7.12502
rthumb -7.49776 -61.1834
lclavicle -2.34814e-015 1.47101e-014
lhumerus -24.1564 -19.2789 87.8077
lradius 46.8765
lwrist -14.4526
lhand -27.4045 -28.787
lfingers 7.12502
lthumb -0.810763 1.19125
rfemur -13.6075 2.80039 14.0114
rtibia 44.6438
rfoot -26.5686 -19.2353
rtoes -2.6364
lfemur -16.5321 6.21629 -10.0072
ltibia 43.4691
lfoot -29.2666 13.4253
ltoes -34.4204
33
root 13.4872 15.9398 1.30598 15.6705 -87.8046 -16.8081
lowerback -7.57063 0.296256 0.843413
upperback 3.14783 0.398262 -1.48331
thorax 7.58187 0.271383 -1.98088
lowerneck 2.01394 0.450615 -1.35085
upperneck 13.7765 -0.322782 5.17101
head 4.18749 -0.16774 1.95907
rclavicle 8.52289e-015 -6.36111e-015
rhumerus -26.3975 12.7732 -93.0616
rradius 48.8368
rwrist 13.7641
rhand -34.465 -31.2926
rfingers 7.12502
rthumb -7.62837 -61.135
lclavicle 8.52289e-015 -6.36111e-015
lhumerus -24.1102 -19.3352 87.7648
lradius 46.7333
lwrist -14.3653
lhand -27.3497 -28.9406
lfingers 7.12502
lthumb -0.757838 1.03776
rfemur -13.6831 2.6613 14.0907
rtibia 44.6284
rfoot -26.5808 -19.2644
rtoes -2.70037
lfemur -16.8409 6.3605 -9.90632
ltibia 43.6745
lfoot -29.1909 13.1209
ltoes -34.4088
34
root 13.4955 15.94 1.31395 16.3103 -87.5882 -17.3549
lowerback -7.33781 0.280708 0.933023
upperback 3.1048 0.369423 -1.50366
thorax 7.40067 0.260382 -2.05616
lowerneck 2.10302 0.48028 -1.28007
upperneck 13.3035 -0.241711 5.1456
head 3.9955 -0.123485 1.93114
rclavicle 1.51573e-015 5.1684e-015
rhumerus -26.5775 12.2724 -93.0949
rradius 48.7158
rwrist 13.5077
rhand -34.4735 -31.2187
rfingers 7.12502
rthumb -7.63665 -61.0608
lclavicle 1.51573e-015 5.1684e-015
lhumerus -24.1082 -19.4133 87.7316
lradius 46.5665
lwrist -14.2831
lhand -27.2802 -29.0934
lfingers 7.12502
lthumb -0.690694 0.885253
rfemur -13.7646 2.51361 14.1301
rtibia 44.6015
rfoot -26.5881 -19.2858
rtoes -2.76059
lfemur -17.1722 6.5007 -9.8479
ltibia 43.8764
lfoot -29.1156 12.8321
ltoes -34.4384
35
root 13.5027 15.9411 1.32364 16.3605 -87.3599 -17.2918
lowerback -7.14955 0.267598 1.01646
upperback 3.05919 0.345731 -1.53792
thorax 7.24299 0.251933 -2.1418
lowerneck 2.14891 0.503068 -1.19159
upperneck 12.8816 -0.17319 5.11115
head 3.83221 -0.0846978 1.89794
rclavicle -1.1778e-014 1.47101e-014
rhumerus -26.7673 11.7602 -93.1245
rradius 48.5455
rwrist 13.2117
rhand -34.3209 -31.0975
rfingers 7.12502
rthumb -7.48934 -60.9449
lclavicle -1.1778e-014 1.47101e-014
lhumerus -24.113 -19.5191 87.7005
lradius 46.3666
lwrist -14.1824
lhand -27.1846 -29.2301
lfingers 7.12502
lthumb -0.598376 0.748822
rfemur -13.8486 2.36405 14.1409
rtibia 44.5625
rfoot -26.5983 -19.2986
rtoes -2.77221
lfemur -17.526 6.62601 -9.82518
ltibia 44.0744
lfoot -29.054 12.556
ltoes -34.491
